<?xml version="1.0" standalone="no"?>
<!DOCTYPE svg PUBLIC "-//W3C//DTD SVG 20010904//EN" "http://www.w3.org/TR/2001/REC-SVG-20010904/DTD/svg10.dtd">
<svg version="1.0" xmlns="http://www.w3.org/2000/svg"
 width="180.000000pt" height="180.000000pt" viewBox="0 0 180.000000 180.000000"
 preserveAspectRatio="xMidYMid meet">
<g transform="translate(0.000000,180.000000) scale(0.100000,-0.100000)"
fill="#000000" stroke="none">
<path d="M850 1420 c-125 -23 -212 -82 -271 -185 -36 -65 -59 -154 -59 -230 0
-75 21 -165 54 -230 111 -219 386 -290 594 -154 147 96 222 291 178 465 -55
218 -273 363 -496 334z m125 -65 c137 -24 254 -141 286 -285 41 -180 -60 -365
-234 -429 -69 -26 -167 -28 -234 -5 -220 75 -328 329 -227 530 66 131 227 212
409 189z"/>
</g>
</svg>