<?xml version="1.0" standalone="no"?>
<!DOCTYPE svg PUBLIC "-//W3C//DTD SVG 20010904//EN" "http://www.w3.org/TR/2001/REC-SVG-20010904/DTD/svg10.dtd">
<svg version="1.0" xmlns="http://www.w3.org/2000/svg"
 width="512pt" height="512pt" viewBox="0 0 512 512"
 preserveAspectRatio="xMidYMid meet">
<g transform="translate(0.000000,512.000000) scale(0.100000,-0.100000)"
fill="#000000" stroke="none">
<path d="M1280 3120 c-96 -21 -178 -78 -271 -185 -36 -65 -59 -154 -59 -230 0
-75 21 -165 54 -230 111 -219 386 -290 594 -154 147 96 222 291 178 465 -55
218 -273 363 -496 334z"/>
<path d="M3060 3310 l0 -1700 410 0 410 0 0 1700 0 1700 -410 0 -410 0 0 -1700z"/>
<path d="M3830 3310 l0 -1700 410 0 410 0 0 1700 0 1700 -410 0 -410 0 0 -1700z"/>
</g>
</svg>