<?xml version="1.0" encoding="UTF-8"?>
<svg width="512" height="512" viewBox="0 0 512 512" fill="none" xmlns="http://www.w3.org/2000/svg">
  <rect width="512" height="512" rx="128" fill="#004C97"/>
  <path d="M128 200C128 187.6 135.2 178 149.2 171.4C163.2 164.8 181.6 161.5 204 161.5C220.8 161.5 235.2 163.8 247.2 168.3C259.2 172.8 268.4 179.5 274.8 188.3C281.2 197.1 284.4 207.8 284.4 220.5H244.8C244.8 212.9 241.6 206.8 235.2 202.1C228.8 197.4 219.2 195.1 206.4 195.1C194 195.1 184.8 196.9 178.8 200.4C172.8 203.9 169.8 208.5 169.8 214.1C169.8 218.6 171.4 222.3 174.6 225.2C177.8 228.1 182.8 230.4 189.6 232.1L224.4 239.5C240.8 243 253.2 248.8 261.6 256.8C270 264.8 274.2 275.3 274.2 288.2C274.2 301.4 267.4 312 253.8 320C240.2 328 221.6 332 198 332C174.4 332 155.6 328 141.6 320C127.6 312 117.8 301.4 112.2 288.2C106.6 275 103.8 261.1 103.8 246.5H143.4C143.4 254.7 146.8 261.5 153.6 266.8C160.4 272.1 170.4 274.8 183.6 274.8C196.8 274.8 206.4 273 212.4 269.5C218.4 266 221.4 261.1 221.4 254.9C221.4 250.4 219.8 246.7 216.6 243.8C213.4 240.9 208.4 238.6 201.6 236.9L166.8 229.5C150.4 226 138 220.2 129.6 212.2C121.2 204.2 117 193.7 117 180.8C117 175.1 118 169.9 120 165.3L128 200Z" fill="white"/>
  <path d="M306 331L306 161L347 161L347 331L306 331Z" fill="white"/>
  <path d="M383 331L383 161L424 161L424 331L383 331Z" fill="white"/>
</svg>