<?xml version="1.0" standalone="no"?>
<!DOCTYPE svg PUBLIC "-//W3C//DTD SVG 20010904//EN"
 "http://www.w3.org/TR/2001/REC-SVG-20010904/DTD/svg10.dtd">
<svg version="1.0" xmlns="http://www.w3.org/2000/svg"
 width="1410.000000pt" height="1419.000000pt" viewBox="0 0 1410.000000 1419.000000"
 preserveAspectRatio="xMidYMid meet">

<g transform="translate(0.000000,1419.000000) scale(0.100000,-0.100000)"
fill="#000000" stroke="none">
<path d="M11840 13675 l0 -455 380 0 381 0 -603 -597 c-332 -329 -697 -690
-812 -804 l-210 -207 284 -291 c156 -160 286 -291 289 -291 3 0 371 349 816
775 l810 775 3 -415 2 -415 438 2 437 3 3 1188 2 1187 -1110 0 -1110 0 0 -455z"/>
<path d="M13120 8305 l0 -2475 -4950 0 -4950 0 0 -445 0 -445 2540 0 2540 0 0
-100 0 -100 -1775 0 -1775 0 0 -205 0 -205 -765 0 -765 0 0 -310 0 -310 3805
0 3805 0 0 400 0 400 -765 0 -765 0 0 215 0 215 2355 0 2355 0 0 2920 0 2920
-445 0 -445 0 0 -2475z"/>
<path d="M1173 3019 c-164 -16 -299 -92 -359 -204 -86 -157 -52 -363 78 -480
66 -60 140 -102 284 -164 203 -87 239 -125 232 -240 -4 -83 -37 -133 -105
-163 -82 -36 -255 -33 -308 6 -12 9 -23 45 -36 122 -10 60 -19 112 -19 117 0
4 -42 7 -94 7 l-94 0 -7 -156 c-6 -127 -5 -158 6 -165 40 -25 164 -70 238 -84
114 -23 308 -17 402 14 97 31 180 90 228 162 49 73 65 141 59 250 -3 71 -9 94
-38 147 -56 106 -144 170 -362 263 -143 62 -195 98 -225 159 -73 143 42 283
221 267 111 -9 111 -9 132 -141 l18 -116 92 0 92 0 7 93 c4 50 5 119 3 152
l-3 60 -64 32 c-109 54 -240 76 -378 62z"/>
<path d="M2368 3019 c-142 -15 -268 -77 -368 -179 -148 -151 -209 -332 -197
-580 11 -209 69 -353 197 -481 83 -84 175 -136 289 -165 98 -24 263 -16 361
19 282 101 446 380 427 727 -8 134 -28 214 -79 320 -112 232 -363 367 -630
339z m153 -149 c91 -25 179 -152 216 -307 25 -109 26 -396 0 -503 -48 -206
-154 -320 -297 -320 -139 0 -234 97 -292 297 -20 69 -23 100 -23 273 0 174 3
204 23 275 43 148 124 261 206 284 43 13 124 13 167 1z"/>
<path d="M11009 3019 c-176 -15 -317 -100 -378 -229 -23 -49 -26 -67 -26 -165
0 -101 2 -115 29 -170 57 -117 164 -194 420 -306 116 -50 169 -95 185 -157 38
-139 -72 -252 -243 -252 -56 0 -163 23 -177 37 -7 7 -48 210 -49 241 0 1 -42
2 -93 2 l-94 0 -6 -152 c-7 -146 -6 -154 13 -170 23 -19 105 -51 190 -75 69
-19 287 -28 360 -15 240 45 372 187 372 402 0 204 -100 314 -403 443 -74 32
-152 72 -173 89 -124 102 -85 285 69 327 75 21 199 7 211 -23 3 -7 13 -60 22
-117 l18 -104 91 -3 91 -3 6 58 c3 32 7 98 8 148 l3 90 -53 31 c-97 59 -243
86 -393 73z"/>
<path d="M5860 3000 c-8 -5 -59 -10 -112 -10 l-98 0 0 -139 c0 -76 -3 -166 -6
-200 l-7 -61 90 0 89 0 20 128 19 127 118 3 117 3 0 -535 c0 -501 -1 -535 -17
-540 -10 -2 -53 -8 -95 -12 l-78 -6 0 -64 0 -64 340 0 340 0 0 64 0 64 -92 8
-93 9 -3 538 -2 537 114 0 c101 0 115 -2 120 -17 2 -10 12 -69 22 -130 l16
-113 84 0 84 0 0 148 c0 81 -3 171 -6 200 l-7 52 -96 0 c-62 0 -101 4 -109 12
-9 9 -12 9 -12 0 0 -15 -716 -18 -722 -2 -2 6 -8 6 -18 0z"/>
<path d="M12715 2988 c-3 -7 -97 -280 -209 -606 -112 -326 -206 -595 -208
-597 -3 -3 -41 -10 -86 -17 l-82 -11 0 -64 0 -63 240 0 240 0 0 63 0 64 -76
11 c-41 5 -78 13 -82 17 -3 3 12 61 34 128 l40 122 206 3 206 2 42 -131 c22
-72 40 -132 38 -134 -2 -1 -39 -6 -83 -11 l-80 -9 -3 -62 -3 -63 311 0 311 0
-3 63 -3 62 -70 8 -70 8 -209 615 -209 614 -94 0 c-66 0 -95 -4 -98 -12z m94
-558 c39 -120 74 -226 77 -235 5 -13 -14 -15 -150 -15 -86 0 -156 3 -156 7 0
12 151 463 155 463 2 0 35 -99 74 -220z"/>
<path d="M3170 2926 l0 -64 79 -7 c78 -7 79 -7 85 -37 8 -40 8 -976 0 -1016
-6 -29 -7 -30 -85 -36 l-79 -7 0 -65 0 -64 405 0 c381 0 404 -1 398 -17 -6
-17 -5 -17 14 0 16 14 39 17 125 17 l105 0 7 178 c4 97 10 192 13 210 l5 32
-90 0 -89 0 -28 -140 -28 -140 -188 0 -189 0 2 538 3 537 88 9 87 8 0 64 0 64
-320 0 -320 0 0 -64z"/>
<path d="M4230 2926 l0 -63 79 -7 79 -7 4 -417 c5 -449 7 -467 63 -589 48
-106 160 -194 290 -228 75 -19 252 -20 324 0 86 23 155 61 209 118 60 64 96
132 124 235 20 71 22 109 26 478 l4 402 84 7 84 7 0 64 0 64 -260 0 -260 0 0
-64 0 -63 83 -7 c45 -4 90 -9 100 -12 16 -5 17 -30 17 -332 0 -180 -5 -365
-10 -410 -27 -214 -113 -306 -285 -307 -44 0 -97 6 -119 14 -54 19 -110 73
-134 129 -38 87 -43 160 -40 542 l3 365 93 9 92 9 0 63 0 64 -325 0 -325 0 0
-64z"/>
<path d="M6890 2926 l0 -64 74 -7 74 -6 6 -37 c3 -20 6 -201 6 -402 0 -281 4
-381 15 -434 42 -197 157 -319 342 -362 97 -23 287 -15 364 15 163 63 255 184
295 389 10 56 14 168 14 452 l0 378 85 7 85 7 0 64 0 64 -255 0 -255 0 0 -64
0 -64 84 -7 c46 -4 89 -10 95 -15 9 -5 11 -101 9 -396 -4 -369 -5 -392 -26
-455 -45 -135 -130 -194 -278 -194 -103 0 -164 28 -211 99 -64 95 -75 182 -71
611 l3 340 93 9 92 9 0 63 0 64 -320 0 -320 0 0 -64z"/>
<path d="M8320 2926 l0 -63 73 -7 c39 -4 80 -9 90 -12 16 -5 17 -39 17 -534
l0 -528 -42 -6 c-24 -3 -67 -8 -95 -12 l-53 -7 0 -63 0 -64 250 0 250 0 0 63
0 63 -77 12 c-42 7 -78 13 -79 15 -4 5 -10 816 -5 812 2 -3 88 -220 191 -482
l187 -478 78 0 77 0 176 475 c96 261 177 477 179 479 13 16 14 -54 8 -412 l-8
-405 -78 -7 -79 -6 0 -65 0 -64 315 0 315 0 0 64 0 64 -85 7 -85 7 0 538 0
538 80 7 80 7 0 64 0 64 -237 -2 -238 -3 -174 -472 c-96 -260 -177 -473 -180
-473 -4 0 -89 214 -191 475 l-185 475 -237 0 -238 0 0 -64z"/>
<path d="M11765 1941 c-73 -34 -105 -86 -105 -170 0 -108 116 -193 221 -162
101 31 156 139 118 238 -22 59 -100 113 -164 113 -16 0 -48 -9 -70 -19z"/>
<path d="M13710 1944 c-74 -32 -110 -86 -110 -165 0 -223 329 -238 348 -15 7
83 -33 148 -111 181 -45 19 -82 19 -127 -1z"/>
<path d="M2420 1478 c-14 -6 -61 -20 -105 -33 l-80 -22 0 -49 0 -49 53 -9 52
-9 -2 -375 -3 -375 -25 -8 c-14 -4 -37 -10 -52 -13 -26 -6 -28 -10 -28 -56 l0
-50 195 0 195 0 0 50 c0 46 -2 50 -27 56 -16 3 -39 9 -53 13 l-25 8 0 457 c0
393 -2 458 -15 466 -19 12 -48 12 -80 -2z"/>
<path d="M11340 1476 c-14 -7 -55 -21 -93 -31 -37 -10 -72 -24 -78 -31 -6 -7
-9 -30 -7 -50 3 -38 4 -38 58 -49 l55 -10 3 -355 c1 -195 0 -365 -3 -377 -3
-14 -16 -25 -33 -29 -15 -3 -35 -8 -45 -11 -11 -3 -27 7 -44 26 l-27 31 -23
-21 c-46 -45 -51 -28 -55 208 -4 236 -7 253 -66 316 -64 67 -232 74 -348 14
-34 -18 -104 -93 -104 -112 0 -7 -8 -19 -19 -29 -18 -16 -17 -18 18 -56 31
-34 43 -40 76 -40 56 0 81 21 106 90 23 65 39 76 93 66 47 -9 67 -36 69 -91 2
-54 0 -56 -88 -81 -143 -42 -244 -105 -271 -171 -8 -18 -14 -52 -14 -75 1
-178 211 -260 365 -142 l32 24 28 -30 c33 -34 93 -54 136 -45 15 4 44 17 64
31 43 29 45 29 45 4 0 -17 7 -20 44 -20 47 0 59 -12 49 -49 -8 -32 14 -25 32
10 16 30 19 31 73 27 53 -3 57 -1 60 20 4 27 5 27 61 0 229 -111 458 124 412
422 -15 92 -38 145 -87 199 -79 88 -183 112 -295 67 -36 -14 -69 -26 -74 -26
-4 0 -6 80 -3 179 3 129 1 183 -7 195 -15 19 -60 20 -95 2z m306 -486 c55 -35
79 -98 79 -210 0 -79 -4 -103 -23 -142 -42 -85 -126 -111 -207 -65 l-40 23 -3
173 c-3 192 -3 192 63 222 52 24 90 24 131 -1z m-766 -298 c0 -75 -6 -85 -67
-116 -69 -35 -133 -11 -133 51 0 44 40 84 113 112 85 33 87 32 87 -47z"/>
<path d="M12116 1478 c-11 -6 -56 -21 -100 -33 l-81 -22 0 -48 0 -49 50 -11
50 -10 3 -376 2 -377 -37 -6 c-73 -13 -73 -13 -73 -67 l0 -49 200 0 200 0 0
49 0 50 -55 11 c-41 8 -56 16 -61 32 -3 12 -5 218 -3 457 2 240 0 442 -4 449
-10 15 -65 15 -91 0z"/>
<path d="M4204 1460 c-66 -27 -86 -125 -36 -181 53 -59 161 -48 197 21 52 101
-51 205 -161 160z"/>
<path d="M1063 1401 c-140 -36 -235 -165 -219 -299 13 -111 81 -188 221 -252
177 -82 196 -92 213 -118 26 -40 22 -105 -8 -137 -33 -35 -49 -44 -110 -55
-34 -6 -67 -6 -101 1 -56 12 -62 21 -73 104 -12 87 -10 85 -79 85 -34 0 -67
-4 -73 -8 -8 -4 -12 -47 -12 -120 l-1 -112 47 -22 c192 -88 394 -77 510 28
111 99 123 269 27 381 -36 42 -128 95 -234 134 -40 15 -81 40 -108 65 -37 35
-43 46 -43 83 0 80 54 124 152 124 31 0 63 -5 71 -11 8 -7 20 -46 27 -87 l13
-75 67 0 67 0 6 106 c5 72 3 111 -4 120 -6 8 -36 26 -68 40 -47 23 -72 28
-156 30 -55 2 -114 0 -132 -5z"/>
<path d="M8020 1403 c-14 -3 -58 -20 -98 -38 -88 -41 -176 -125 -216 -206
-101 -207 -62 -475 89 -618 94 -89 203 -131 342 -131 99 0 169 13 246 47 l57
26 2 98 c1 55 2 109 2 122 1 20 -4 22 -63 25 -44 2 -67 -1 -72 -10 -4 -7 -11
-40 -15 -75 -8 -74 -20 -87 -95 -102 -120 -25 -239 32 -295 141 -52 100 -62
262 -25 385 26 86 86 159 158 193 58 27 169 32 204 8 22 -14 48 -88 49 -140 0
-16 5 -28 10 -29 6 0 36 -1 68 -2 l57 -1 3 117 c3 114 2 116 -22 132 -63 42
-129 58 -246 61 -63 1 -126 0 -140 -3z"/>
<path d="M10172 1303 c-5 -10 -13 -38 -17 -63 -3 -25 -11 -59 -16 -77 -10 -33
-19 -37 -99 -45 -23 -3 -25 -7 -28 -60 l-3 -58 43 0 c24 0 48 -4 55 -8 8 -5
13 -75 15 -237 3 -265 8 -283 88 -322 83 -41 186 -25 253 39 l39 37 -32 40
-31 41 -37 -25 c-20 -14 -46 -25 -58 -25 -45 0 -49 19 -49 244 l0 211 93 3 92
3 0 64 0 64 -87 3 -88 3 0 90 0 90 -62 3 c-51 2 -63 0 -71 -15z"/>
<path d="M1766 1133 c-128 -39 -210 -140 -236 -293 -14 -81 5 -192 45 -262 90
-161 311 -216 471 -118 52 33 111 106 135 169 28 73 30 202 4 282 -57 179
-242 277 -419 222z m174 -131 c65 -47 97 -197 70 -326 -30 -147 -182 -196
-257 -83 -61 91 -53 315 15 391 42 47 120 56 172 18z"/>
<path d="M3654 1129 c-128 -40 -220 -164 -231 -312 -14 -179 46 -306 173 -368
122 -60 269 -47 359 33 27 23 85 120 85 141 0 3 -17 15 -37 27 l-37 22 -30
-37 c-76 -95 -229 -100 -294 -8 -43 62 -57 186 -31 274 18 59 75 115 127 124
58 9 78 -5 97 -70 12 -43 23 -60 48 -75 54 -33 110 -20 138 32 19 35 -7 103
-60 157 -75 77 -186 99 -307 60z"/>
<path d="M4172 1102 l-113 -46 3 -45 c3 -43 5 -46 33 -49 82 -7 75 12 75 -211
l0 -199 -32 -7 c-69 -14 -68 -13 -68 -66 l0 -49 185 0 185 0 0 49 c0 52 1 51
-62 65 -24 6 -27 11 -34 73 -4 38 -4 164 0 282 6 192 5 216 -10 232 -9 11 -24
19 -33 18 -9 0 -67 -21 -129 -47z"/>
<path d="M4729 1134 c-66 -20 -137 -72 -175 -127 -49 -70 -67 -145 -62 -252 8
-174 88 -285 238 -329 86 -26 184 -16 265 26 184 96 229 406 84 581 -80 97
-226 140 -350 101z m145 -118 c67 -28 106 -114 106 -235 0 -100 -18 -159 -60
-205 -36 -38 -42 -41 -94 -41 -47 0 -59 4 -85 29 -47 45 -66 106 -65 211 1
141 30 211 98 241 40 17 59 17 100 0z"/>
<path d="M5327 1106 c-54 -23 -102 -47 -108 -53 -6 -6 -9 -28 -7 -49 3 -38 4
-39 50 -46 26 -3 52 -9 57 -13 7 -4 11 -74 11 -195 0 -210 3 -200 -72 -214
-36 -7 -37 -7 -35 -54 l2 -47 188 -3 187 -2 0 49 c0 48 -1 50 -32 56 -74 15
-68 -3 -68 205 l0 190 53 30 c37 21 65 30 99 30 77 0 82 -15 86 -242 l4 -188
-24 -9 c-13 -5 -35 -12 -50 -15 -26 -6 -28 -10 -28 -56 l0 -50 183 2 182 3 3
46 3 47 -50 12 -51 12 0 202 c0 217 -9 277 -52 331 -28 36 -92 65 -144 65 -48
0 -148 -32 -187 -61 -32 -23 -47 -18 -47 16 0 22 -26 46 -47 44 -4 0 -52 -20
-106 -43z"/>
<path d="M6293 1132 c-104 -34 -177 -107 -219 -217 -23 -60 -26 -218 -5 -280
58 -174 231 -262 412 -209 51 15 109 50 137 84 33 39 63 93 55 99 -4 3 -20 17
-36 31 l-27 24 -38 -36 c-52 -50 -93 -68 -153 -68 -62 0 -121 30 -149 75 -25
42 -41 103 -28 111 5 3 99 6 208 5 236 -2 225 -8 218 123 -5 84 -18 121 -66
185 -55 73 -204 109 -309 73z m148 -125 c19 -12 42 -38 51 -57 15 -29 16 -37
4 -55 -12 -18 -26 -20 -136 -23 l-122 -3 6 28 c17 68 85 132 142 133 12 0 36
-10 55 -23z"/>
<path d="M6915 1132 c-58 -20 -86 -38 -114 -74 -67 -85 -59 -201 19 -271 39
-36 63 -49 165 -88 105 -40 139 -75 115 -119 -33 -62 -198 -66 -208 -5 -2 11
-8 37 -13 58 l-10 37 -66 0 -65 0 6 -31 c3 -17 6 -62 6 -98 l0 -67 38 -18
c175 -85 390 -46 460 84 19 37 23 56 20 106 -6 106 -63 164 -221 224 -45 17
-92 41 -104 52 -44 41 -21 91 47 102 47 9 94 -6 98 -30 2 -10 8 -36 13 -56
l10 -38 58 0 58 0 6 88 c5 103 1 110 -102 142 -77 24 -150 25 -216 2z"/>
<path d="M8734 1129 c-75 -23 -154 -90 -190 -160 -36 -71 -51 -182 -35 -265
24 -130 77 -206 179 -256 59 -30 76 -33 152 -33 71 0 94 4 140 26 79 37 125
81 162 156 28 57 33 79 36 158 6 135 -20 209 -102 291 -98 98 -211 125 -342
83z m180 -124 c57 -37 93 -176 76 -293 -17 -121 -76 -188 -157 -179 -94 10
-134 71 -141 218 -6 116 13 193 58 238 45 44 111 51 164 16z"/>
<path d="M9365 1116 c-137 -62 -130 -56 -130 -106 0 -32 4 -45 15 -47 8 -1 32
-4 53 -8 l37 -6 0 -199 0 -200 -27 -5 c-16 -4 -38 -8 -50 -11 -20 -4 -23 -11
-23 -54 l0 -50 185 0 185 0 0 49 c0 52 1 51 -62 65 l-28 6 0 190 0 189 28 18
c43 30 80 43 120 43 76 0 82 -18 82 -249 l0 -191 -25 -5 c-14 -3 -36 -7 -50
-10 -23 -5 -25 -10 -25 -55 l0 -50 185 0 185 0 0 40 c0 22 1 43 3 48 1 4 -18
13 -43 21 -25 8 -48 19 -53 25 -4 6 -7 100 -6 209 1 221 -9 274 -65 328 -67
65 -199 62 -300 -6 -46 -31 -56 -31 -56 -2 0 26 -29 58 -51 56 -8 0 -45 -15
-84 -33z"/>
<path d="M12609 1134 c-170 -52 -270 -228 -241 -424 26 -179 135 -286 303
-298 97 -7 199 30 252 92 20 23 67 93 67 100 0 2 -16 16 -36 31 l-36 27 -36
-35 c-52 -49 -93 -67 -152 -67 -85 0 -145 46 -174 133 -9 26 -16 50 -16 52 0
3 95 5 210 5 l210 0 11 28 c15 37 14 132 -1 179 -17 50 -63 117 -98 141 -70
49 -175 63 -263 36z m169 -149 c23 -25 32 -44 32 -70 0 -44 -11 -47 -150 -43
l-105 3 3 25 c4 38 46 94 83 114 49 24 97 14 137 -29z"/>
<path d="M13222 1131 c-56 -19 -114 -67 -138 -113 -8 -15 -14 -55 -14 -90 0
-72 18 -110 72 -153 32 -25 160 -85 183 -85 6 0 27 -11 48 -25 31 -21 37 -32
37 -60 0 -45 -32 -67 -106 -73 -75 -6 -100 11 -111 80 l-8 53 -65 0 c-46 0
-65 -4 -64 -12 1 -7 2 -50 3 -96 l1 -83 38 -18 c175 -85 390 -46 460 84 19 37
23 56 20 106 -7 109 -61 163 -225 225 -112 42 -142 77 -108 126 18 26 87 39
125 25 20 -8 27 -20 35 -63 l10 -54 63 -3 62 -3 2 38 c6 153 8 141 -26 163
-42 25 -138 50 -196 50 -25 -1 -69 -9 -98 -19z"/>
<path d="M2810 1134 c-8 -1 -55 -6 -103 -9 l-88 -7 3 -51 3 -51 43 -9 42 -8 0
-198 c0 -207 9 -261 52 -323 25 -37 95 -68 151 -68 52 0 142 30 181 61 31 25
46 18 46 -22 0 -33 1 -34 158 -23 l92 7 0 47 0 46 -47 15 -48 14 0 283 c0 313
1 306 -65 298 -19 -3 -72 -8 -117 -12 l-83 -6 0 -49 0 -49 45 -11 c25 -6 45
-14 45 -18 1 -15 1 -337 0 -348 0 -16 -81 -63 -124 -73 -39 -9 -89 9 -102 36
-5 11 -9 131 -9 267 0 280 1 278 -75 261z"/>
</g>
</svg>
